<?xml version="1.0" standalone="no"?>
<svg width="100%" shape-rendering="crispEdges" xmlns="http://www.w3.org/2000/svg" viewBox="0 0 43 43" class="rounded-borders q-mb-sm" style="max-width: 450px;"><defs><!----></defs><rect width="100%" height="100%" fill="#fff"/><path fill="#000" d="M3 3h7v1H3zM12 3h3v1H12zM16 3h5v1H16zM24 3h3v1H24zM28 3h1v1H28zM30 3h1v1H30zM33,3 h7v1H33zM3 4h1v1H3zM9 4h1v1H9zM11 4h1v1H11zM13 4h4v1H13zM22 4h7v1H22zM33 4h1v1H33zM39,4 h1v1H39zM3 5h1v1H3zM5 5h3v1H5zM9 5h1v1H9zM12 5h1v1H12zM14 5h2v1H14zM17 5h3v1H17zM22 5h1v1H22zM24 5h3v1H24zM28 5h1v1H28zM30 5h2v1H30zM33 5h1v1H33zM35 5h3v1H35zM39,5 h1v1H39zM3 6h1v1H3zM5 6h3v1H5zM9 6h1v1H9zM11 6h1v1H11zM16 6h2v1H16zM20 6h2v1H20zM24 6h7v1H24zM33 6h1v1H33zM35 6h3v1H35zM39,6 h1v1H39zM3 7h1v1H3zM5 7h3v1H5zM9 7h1v1H9zM11 7h1v1H11zM13 7h1v1H13zM17 7h2v1H17zM21 7h1v1H21zM23 7h2v1H23zM28 7h2v1H28zM31 7h1v1H31zM33 7h1v1H33zM35 7h3v1H35zM39,7 h1v1H39zM3 8h1v1H3zM9 8h1v1H9zM12 8h4v1H12zM19 8h1v1H19zM21 8h1v1H21zM25 8h1v1H25zM28 8h2v1H28zM31 8h1v1H31zM33 8h1v1H33zM39,8 h1v1H39zM3 9h7v1H3zM11 9h1v1H11zM13 9h1v1H13zM15 9h1v1H15zM17 9h1v1H17zM19 9h1v1H19zM21 9h1v1H21zM23 9h1v1H23zM25 9h1v1H25zM27 9h1v1H27zM29 9h1v1H29zM31 9h1v1H31zM33,9 h7v1H33zM11 10h2v1H11zM16 10h5v1H16zM26 10h1v1H26zM28 10h2v1H28zM31 10h1v1H31zM4 11h1v1H4zM6 11h4v1H6zM11 11h1v1H11zM15 11h2v1H15zM18 11h2v1H18zM23 11h2v1H23zM27 11h1v1H27zM31 11h3v1H31zM35 11h2v1H35zM38 11h1v1H38zM5 12h4v1H5zM13 12h3v1H13zM17 12h2v1H17zM23 12h1v1H23zM26 12h1v1H26zM28 12h1v1H28zM32 12h1v1H32zM34 12h1v1H34zM3 13h3v1H3zM7 13h1v1H7zM9 13h2v1H9zM13 13h2v1H13zM19 13h3v1H19zM23 13h5v1H23zM29 13h2v1H29zM35 13h4v1H35zM5 14h2v1H5zM10 14h2v1H10zM14 14h1v1H14zM16 14h2v1H16zM19 14h1v1H19zM23 14h1v1H23zM29 14h5v1H29zM35 14h1v1H35zM37,14 h3v1H37zM4 15h3v1H4zM9 15h1v1H9zM11 15h1v1H11zM13 15h3v1H13zM19 15h1v1H19zM21 15h1v1H21zM23 15h1v1H23zM27 15h4v1H27zM32 15h2v1H32zM35 15h3v1H35zM39,15 h1v1H39zM5 16h1v1H5zM8 16h1v1H8zM11 16h4v1H11zM22 16h1v1H22zM26 16h2v1H26zM31 16h7v1H31zM3 17h1v1H3zM5 17h3v1H5zM9 17h2v1H9zM16 17h1v1H16zM18 17h3v1H18zM24 17h2v1H24zM28 17h1v1H28zM30 17h1v1H30zM33 17h5v1H33zM3 18h1v1H3zM5 18h2v1H5zM8 18h1v1H8zM13 18h1v1H13zM15 18h3v1H15zM19 18h3v1H19zM27 18h1v1H27zM29 18h3v1H29zM37 18h2v1H37zM6 19h1v1H6zM8 19h3v1H8zM12 19h2v1H12zM15 19h1v1H15zM17 19h8v1H17zM29 19h1v1H29zM32 19h2v1H32zM37 19h2v1H37zM6 20h1v1H6zM10 20h1v1H10zM15 20h3v1H15zM20 20h1v1H20zM26 20h3v1H26zM31 20h4v1H31zM36 20h2v1H36zM6 21h4v1H6zM12 21h1v1H12zM15 21h1v1H15zM17 21h1v1H17zM19 21h1v1H19zM22 21h2v1H22zM25 21h2v1H25zM28 21h5v1H28zM34 21h3v1H34zM38,21 h2v1H38zM3 22h1v1H3zM5 22h1v1H5zM8 22h1v1H8zM11 22h1v1H11zM13 22h2v1H13zM16 22h1v1H16zM20 22h2v1H20zM27 22h2v1H27zM30 22h5v1H30zM37 22h2v1H37zM5 23h3v1H5zM9 23h3v1H9zM15 23h2v1H15zM18 23h1v1H18zM22 23h2v1H22zM25 23h1v1H25zM27 23h1v1H27zM29 23h1v1H29zM32 23h1v1H32zM34 23h1v1H34zM38,23 h2v1H38zM3 24h2v1H3zM6 24h1v1H6zM11 24h5v1H11zM17 24h1v1H17zM19 24h1v1H19zM22 24h4v1H22zM29 24h2v1H29zM32 24h1v1H32zM34 24h3v1H34zM38,24 h2v1H38zM5 25h2v1H5zM9 25h1v1H9zM14 25h2v1H14zM17 25h1v1H17zM19 25h3v1H19zM26 25h2v1H26zM29 25h1v1H29zM32 25h1v1H32zM34 25h1v1H34zM38,25 h2v1H38zM5 26h2v1H5zM11 26h1v1H11zM16 26h2v1H16zM19 26h1v1H19zM22 26h1v1H22zM25 26h2v1H25zM30 26h2v1H30zM3 27h2v1H3zM7 27h5v1H7zM15 27h1v1H15zM18 27h2v1H18zM22 27h1v1H22zM24 27h1v1H24zM27 27h3v1H27zM32 27h1v1H32zM34 27h2v1H34zM38 27h1v1H38zM3 28h1v1H3zM6 28h1v1H6zM11 28h1v1H11zM13 28h1v1H13zM15 28h1v1H15zM19 28h5v1H19zM25 28h1v1H25zM27 28h3v1H27zM33 28h2v1H33zM36 28h1v1H36zM38 28h1v1H38zM3 29h2v1H3zM8 29h2v1H8zM12 29h1v1H12zM14 29h1v1H14zM16 29h1v1H16zM21 29h9v1H21zM31 29h1v1H31zM34 29h1v1H34zM38,29 h2v1H38zM3 30h1v1H3zM5 30h4v1H5zM11 30h1v1H11zM14 30h2v1H14zM20 30h1v1H20zM22 30h1v1H22zM24 30h5v1H24zM34 30h5v1H34zM3 31h1v1H3zM9 31h3v1H9zM14 31h2v1H14zM17 31h3v1H17zM22 31h1v1H22zM24 31h1v1H24zM26 31h1v1H26zM29 31h1v1H29zM31 31h5v1H31zM37 31h1v1H37zM39,31 h1v1H39zM11 32h2v1H11zM15 32h1v1H15zM18 32h1v1H18zM23 32h4v1H23zM31 32h1v1H31zM35 32h3v1H35zM3 33h7v1H3zM12 33h1v1H12zM16 33h5v1H16zM30 33h2v1H30zM33 33h1v1H33zM35 33h1v1H35zM37 33h2v1H37zM3 34h1v1H3zM9 34h1v1H9zM11 34h1v1H11zM16 34h2v1H16zM19 34h1v1H19zM22 34h3v1H22zM28 34h4v1H28zM35 34h3v1H35zM39,34 h1v1H39zM3 35h1v1H3zM5 35h3v1H5zM9 35h1v1H9zM11 35h1v1H11zM15 35h1v1H15zM17 35h2v1H17zM23 35h2v1H23zM27 35h1v1H27zM30 35h9v1H30zM3 36h1v1H3zM5 36h3v1H5zM9 36h1v1H9zM11 36h1v1H11zM13 36h1v1H13zM15 36h2v1H15zM19 36h3v1H19zM23 36h3v1H23zM29 36h2v1H29zM33 36h1v1H33zM35 36h1v1H35zM37 36h1v1H37zM3 37h1v1H3zM5 37h3v1H5zM9 37h1v1H9zM12 37h10v1H12zM24 37h2v1H24zM27 37h3v1H27zM32 37h2v1H32zM35 37h1v1H35zM38,37 h2v1H38zM3 38h1v1H3zM9 38h1v1H9zM11 38h3v1H11zM15 38h2v1H15zM19 38h2v1H19zM24 38h1v1H24zM30 38h2v1H30zM33 38h1v1H33zM35 38h4v1H35zM3 39h7v1H3zM12 39h3v1H12zM16 39h1v1H16zM19 39h2v1H19zM22 39h2v1H22zM25 39h1v1H25zM27 39h2v1H27zM30 39h2v1H30zM33 39h1v1H33zM35 39h1v1H35zM38,39 h2v1H38z"/><!----></svg>