<?xml version="1.0" standalone="no"?>
<svg width="100%" shape-rendering="crispEdges" xmlns="http://www.w3.org/2000/svg" viewBox="0 0 43 43" class="rounded-borders q-mb-sm" style="max-width: 450px;"><defs><!----></defs><rect width="100%" height="100%" fill="#fff"/><path fill="#000" d="M3 3h7v1H3zM15 3h5v1H15zM21 3h1v1H21zM23 3h4v1H23zM28 3h1v1H28zM30 3h1v1H30zM33,3 h7v1H33zM3 4h1v1H3zM9 4h1v1H9zM11 4h1v1H11zM13 4h1v1H13zM15 4h1v1H15zM20 4h9v1H20zM33 4h1v1H33zM39,4 h1v1H39zM3 5h1v1H3zM5 5h3v1H5zM9 5h1v1H9zM12 5h1v1H12zM14 5h3v1H14zM18 5h2v1H18zM21 5h2v1H21zM24 5h3v1H24zM28 5h1v1H28zM30 5h2v1H30zM33 5h1v1H33zM35 5h3v1H35zM39,5 h1v1H39zM3 6h1v1H3zM5 6h3v1H5zM9 6h1v1H9zM11 6h5v1H11zM20 6h1v1H20zM22 6h9v1H22zM33 6h1v1H33zM35 6h3v1H35zM39,6 h1v1H39zM3 7h1v1H3zM5 7h3v1H5zM9 7h1v1H9zM11 7h1v1H11zM14 7h4v1H14zM21 7h1v1H21zM24 7h1v1H24zM28 7h2v1H28zM31 7h1v1H31zM33 7h1v1H33zM35 7h3v1H35zM39,7 h1v1H39zM3 8h1v1H3zM9 8h1v1H9zM12 8h6v1H12zM19 8h1v1H19zM21 8h2v1H21zM25 8h1v1H25zM28 8h2v1H28zM31 8h1v1H31zM33 8h1v1H33zM39,8 h1v1H39zM3 9h7v1H3zM11 9h1v1H11zM13 9h1v1H13zM15 9h1v1H15zM17 9h1v1H17zM19 9h1v1H19zM21 9h1v1H21zM23 9h1v1H23zM25 9h1v1H25zM27 9h1v1H27zM29 9h1v1H29zM31 9h1v1H31zM33,9 h7v1H33zM11 10h2v1H11zM15 10h1v1H15zM17 10h1v1H17zM20 10h1v1H20zM23 10h1v1H23zM26 10h1v1H26zM28 10h2v1H28zM31 10h1v1H31zM4 11h1v1H4zM6 11h4v1H6zM11 11h1v1H11zM15 11h4v1H15zM22 11h3v1H22zM27 11h2v1H27zM31 11h3v1H31zM35 11h2v1H35zM38 11h1v1H38zM4 12h1v1H4zM6 12h3v1H6zM12 12h9v1H12zM23 12h1v1H23zM26 12h1v1H26zM28 12h3v1H28zM32 12h2v1H32zM35 12h3v1H35zM5 13h3v1H5zM9 13h2v1H9zM12 13h1v1H12zM14 13h1v1H14zM18 13h1v1H18zM21 13h1v1H21zM23 13h5v1H23zM29 13h1v1H29zM31 13h1v1H31zM34 13h3v1H34zM38 13h1v1H38zM3 14h2v1H3zM8 14h1v1H8zM10 14h2v1H10zM14 14h1v1H14zM16 14h3v1H16zM20 14h2v1H20zM23 14h1v1H23zM29 14h2v1H29zM32 14h2v1H32zM36 14h1v1H36zM38,14 h2v1H38zM3 15h1v1H3zM5 15h2v1H5zM9 15h1v1H9zM12 15h6v1H12zM20 15h2v1H20zM24 15h1v1H24zM27 15h4v1H27zM32 15h2v1H32zM35 15h1v1H35zM39,15 h1v1H39zM4 16h1v1H4zM6 16h1v1H6zM8 16h1v1H8zM11 16h2v1H11zM15 16h1v1H15zM19 16h2v1H19zM22 16h1v1H22zM26 16h2v1H26zM31 16h7v1H31zM3 17h1v1H3zM5 17h1v1H5zM7 17h5v1H7zM13 17h4v1H13zM19 17h1v1H19zM21 17h2v1H21zM24 17h2v1H24zM28 17h1v1H28zM30 17h1v1H30zM33 17h5v1H33zM3 18h1v1H3zM6 18h1v1H6zM10 18h4v1H10zM15 18h3v1H15zM19 18h2v1H19zM22 18h2v1H22zM27 18h1v1H27zM29 18h3v1H29zM37 18h2v1H37zM6 19h1v1H6zM8 19h4v1H8zM13 19h2v1H13zM17 19h3v1H17zM24 19h1v1H24zM29 19h1v1H29zM32 19h2v1H32zM37 19h2v1H37zM6 20h1v1H6zM11 20h1v1H11zM13 20h1v1H13zM16 20h2v1H16zM20 20h1v1H20zM23 20h1v1H23zM26 20h3v1H26zM31 20h4v1H31zM36 20h2v1H36zM3 21h1v1H3zM6 21h2v1H6zM9 21h1v1H9zM15 21h3v1H15zM19 21h2v1H19zM22 21h2v1H22zM25 21h2v1H25zM28 21h5v1H28zM34 21h3v1H34zM38 21h1v1H38zM4 22h2v1H4zM7 22h1v1H7zM11 22h3v1H11zM17 22h1v1H17zM22 22h1v1H22zM27 22h2v1H27zM30 22h5v1H30zM37 22h1v1H37zM3 23h1v1H3zM5 23h1v1H5zM7 23h3v1H7zM14 23h2v1H14zM17 23h2v1H17zM20 23h1v1H20zM22 23h2v1H22zM25 23h1v1H25zM27 23h1v1H27zM29 23h1v1H29zM32 23h1v1H32zM34 23h1v1H34zM38,23 h2v1H38zM5 24h2v1H5zM8 24h1v1H8zM11 24h2v1H11zM14 24h5v1H14zM21 24h1v1H21zM24 24h2v1H24zM29 24h2v1H29zM32 24h1v1H32zM34 24h3v1H34zM38,24 h2v1H38zM4 25h1v1H4zM9 25h2v1H9zM16 25h1v1H16zM18 25h4v1H18zM23 25h1v1H23zM26 25h2v1H26zM29 25h1v1H29zM32 25h3v1H32zM39,25 h1v1H39zM5 26h1v1H5zM10 26h1v1H10zM15 26h2v1H15zM18 26h2v1H18zM25 26h2v1H25zM30 26h3v1H30zM39,26 h1v1H39zM3 27h2v1H3zM7 27h3v1H7zM11 27h1v1H11zM15 27h3v1H15zM19 27h1v1H19zM24 27h1v1H24zM27 27h3v1H27zM32 27h2v1H32zM35 27h1v1H35zM38 27h1v1H38zM3 28h1v1H3zM6 28h1v1H6zM11 28h1v1H11zM13 28h1v1H13zM15 28h3v1H15zM20 28h6v1H20zM27 28h4v1H27zM32 28h1v1H32zM35 28h2v1H35zM38 28h1v1H38zM3 29h2v1H3zM6 29h1v1H6zM9 29h1v1H9zM12 29h3v1H12zM17 29h1v1H17zM19 29h1v1H19zM22 29h8v1H22zM31 29h1v1H31zM34 29h1v1H34zM37,29 h3v1H37zM3 30h1v1H3zM7 30h2v1H7zM11 30h1v1H11zM14 30h2v1H14zM17 30h2v1H17zM21 30h2v1H21zM25 30h4v1H25zM30 30h2v1H30zM34 30h5v1H34zM3 31h1v1H3zM5 31h2v1H5zM8 31h5v1H8zM14 31h4v1H14zM19 31h4v1H19zM26 31h1v1H26zM29 31h7v1H29zM37 31h1v1H37zM39,31 h1v1H39zM11 32h3v1H11zM15 32h1v1H15zM18 32h1v1H18zM20 32h1v1H20zM24 32h1v1H24zM26 32h1v1H26zM31 32h1v1H31zM35 32h3v1H35zM3 33h7v1H3zM13 33h1v1H13zM16 33h4v1H16zM23 33h1v1H23zM30 33h2v1H30zM33 33h1v1H33zM35 33h1v1H35zM37 33h2v1H37zM3 34h1v1H3zM9 34h1v1H9zM11 34h3v1H11zM15 34h7v1H15zM24 34h1v1H24zM28 34h4v1H28zM35 34h3v1H35zM39,34 h1v1H39zM3 35h1v1H3zM5 35h3v1H5zM9 35h1v1H9zM11 35h3v1H11zM15 35h1v1H15zM17 35h1v1H17zM20 35h1v1H20zM23 35h2v1H23zM27 35h1v1H27zM30 35h9v1H30zM3 36h1v1H3zM5 36h3v1H5zM9 36h1v1H9zM11 36h3v1H11zM19 36h2v1H19zM23 36h3v1H23zM29 36h2v1H29zM33 36h1v1H33zM35 36h1v1H35zM37 36h1v1H37zM3 37h1v1H3zM5 37h3v1H5zM9 37h1v1H9zM12 37h2v1H12zM15 37h1v1H15zM17 37h5v1H17zM24 37h2v1H24zM27 37h3v1H27zM32 37h2v1H32zM35 37h1v1H35zM38,37 h2v1H38zM3 38h1v1H3zM9 38h1v1H9zM11 38h2v1H11zM14 38h1v1H14zM17 38h1v1H17zM19 38h1v1H19zM21 38h1v1H21zM30 38h2v1H30zM33 38h1v1H33zM35 38h4v1H35zM3 39h7v1H3zM12 39h1v1H12zM19 39h1v1H19zM21 39h2v1H21zM24 39h1v1H24zM27 39h2v1H27zM30 39h2v1H30zM33 39h1v1H33zM35 39h1v1H35zM38,39 h2v1H38z"/><!----></svg>